<?xml version="1.0" encoding="UTF-8"?>
<svg xmlns="http://www.w3.org/2000/svg" xmlns:xlink="http://www.w3.org/1999/xlink" width="2501" height="2501" viewBox="0 0 2501 2501">
<path fill-rule="evenodd" fill="rgb(19.993591%, 19.993591%, 19.993591%)" fill-opacity="1" d="M 1250.839844 1885.523438 C 1233.359375 1885.523438 1217.03125 1880.308594 1203.339844 1871.363281 C 1133.050781 1825.429688 1086.058594 1832.234375 998.621094 1826.988281 C 858.898438 1818.605469 763.386719 1830.589844 625.359375 1843.226562 C 590.605469 1846.40625 561.90625 1814.671875 561.90625 1779.777344 L 561.90625 942.589844 C 561.90625 907.699219 590.460938 879.140625 625.359375 879.140625 L 1876.320312 879.140625 C 1911.21875 879.140625 1939.769531 907.699219 1939.769531 942.589844 L 1939.769531 1779.777344 C 1939.769531 1814.671875 1911.070312 1846.40625 1876.320312 1843.226562 C 1738.289062 1830.589844 1642.78125 1818.605469 1503.058594 1826.988281 C 1415.621094 1832.234375 1368.628906 1825.429688 1298.339844 1871.363281 C 1284.648438 1880.308594 1268.320312 1885.523438 1250.839844 1885.523438 "/>
<path fill-rule="evenodd" fill="rgb(100%, 100%, 100%)" fill-opacity="1" d="M 1250.839844 902.820312 L 1906.621094 902.820312 C 1911.839844 902.820312 1916.101562 907.128906 1916.101562 912.429688 L 1916.101562 1728.664062 C 1916.101562 1777.492188 1877.238281 1762.714844 1825.628906 1757.09375 C 1695.328125 1742.898438 1524.988281 1733.113281 1394.46875 1752.5 C 1346.070312 1759.691406 1301.089844 1785.113281 1250.839844 1781.269531 L 1250.839844 902.820312 "/>
<path fill-rule="evenodd" fill="rgb(100%, 100%, 100%)" fill-opacity="1" d="M 1250.839844 902.820312 L 595.0625 902.820312 C 589.839844 902.820312 585.578125 907.128906 585.578125 912.429688 L 585.578125 1728.664062 C 585.578125 1777.492188 624.4375 1762.714844 676.046875 1757.09375 C 806.351562 1742.898438 976.6875 1733.113281 1107.210938 1752.5 C 1155.609375 1759.691406 1200.589844 1785.113281 1250.839844 1781.269531 L 1250.839844 902.820312 "/>
<path fill-rule="evenodd" fill="rgb(19.993591%, 19.993591%, 19.993591%)" fill-opacity="1" d="M 1235.75 858.070312 C 1243.53125 860.351562 1250.25 864.890625 1255.039062 871.628906 C 1261.808594 881.160156 1262.679688 891.589844 1262.679688 902.820312 L 1262.679688 1752.910156 C 1262.679688 1764.332031 1256.980469 1774.726562 1247.339844 1780.867188 C 1237.738281 1786.992188 1225.839844 1787.773438 1215.519531 1782.960938 C 1135.21875 1745.546875 1046.179688 1720.710938 959.355469 1704.09375 C 853.179688 1683.773438 743.972656 1674.726562 635.925781 1674.726562 C 635.417969 1674.726562 634.910156 1674.726562 634.398438 1674.730469 C 625.496094 1674.75 617.210938 1671.335938 610.90625 1665.046875 C 604.601562 1658.761719 601.164062 1650.476562 601.164062 1641.570312 L 601.164062 778.460938 C 601.164062 760.199219 615.976562 745.351562 634.230469 745.300781 C 634.796875 745.300781 635.363281 745.300781 635.925781 745.300781 C 747.472656 745.300781 860.191406 754.710938 969.78125 775.800781 C 1060.019531 793.160156 1152.261719 819.128906 1235.75 858.070312 "/>
<path fill-rule="evenodd" fill="rgb(100%, 100%, 100%)" fill-opacity="1" d="M 624.839844 891.5 L 624.839844 1641.570312 C 624.839844 1644.1875 625.773438 1646.4375 627.625 1648.285156 C 629.476562 1650.132812 631.730469 1651.0625 634.347656 1651.054688 C 634.875 1651.054688 635.398438 1651.050781 635.925781 1651.050781 C 869.722656 1651.050781 1079.941406 1693.671875 1225.519531 1761.503906 C 1228.539062 1762.910156 1231.800781 1762.699219 1234.621094 1760.902344 C 1237.429688 1759.113281 1239 1756.246094 1239 1752.910156 L 1239 902.820312 C 1239 892.949219 1238.738281 882.71875 1227.699219 880.449219 C 1082.050781 812.011719 870.898438 768.96875 635.925781 768.96875 C 635.382812 768.96875 634.839844 768.96875 634.296875 768.96875 C 629.082031 768.988281 624.839844 773.238281 624.839844 778.460938 L 624.839844 891.5 "/>
<path fill-rule="evenodd" fill="rgb(19.993591%, 19.993591%, 19.993591%)" fill-opacity="1" d="M 1265.929688 858.070312 C 1258.148438 860.351562 1251.429688 864.890625 1246.640625 871.628906 C 1239.871094 881.160156 1239 891.589844 1239 902.820312 L 1239 1752.910156 C 1239 1764.332031 1244.699219 1774.726562 1254.339844 1780.867188 C 1263.941406 1786.992188 1275.839844 1787.773438 1286.160156 1782.960938 C 1366.460938 1745.546875 1455.5 1720.710938 1542.320312 1704.09375 C 1648.5 1683.773438 1757.699219 1674.726562 1865.75 1674.726562 C 1866.261719 1674.726562 1866.769531 1674.726562 1867.28125 1674.730469 C 1876.179688 1674.75 1884.46875 1671.335938 1890.769531 1665.046875 C 1897.078125 1658.761719 1900.511719 1650.476562 1900.511719 1641.570312 L 1900.511719 778.460938 C 1900.511719 760.199219 1885.699219 745.351562 1867.449219 745.300781 C 1866.878906 745.300781 1866.320312 745.300781 1865.75 745.300781 C 1754.210938 745.300781 1641.488281 754.710938 1531.898438 775.800781 C 1441.660156 793.160156 1349.421875 819.128906 1265.929688 858.070312 "/>
<path fill-rule="evenodd" fill="rgb(100%, 100%, 100%)" fill-opacity="1" d="M 1876.839844 891.5 L 1876.839844 1641.570312 C 1876.839844 1644.1875 1875.910156 1646.4375 1874.050781 1648.285156 C 1872.199219 1650.132812 1869.949219 1651.0625 1867.328125 1651.054688 C 1866.800781 1651.054688 1866.28125 1651.050781 1865.75 1651.050781 C 1631.960938 1651.050781 1421.738281 1693.671875 1276.160156 1761.503906 C 1273.140625 1762.910156 1269.871094 1762.699219 1267.058594 1760.902344 C 1264.25 1759.113281 1262.679688 1756.246094 1262.679688 1752.910156 L 1262.679688 902.820312 C 1262.679688 892.949219 1262.929688 882.71875 1273.96875 880.449219 C 1419.628906 812.011719 1630.78125 768.96875 1865.75 768.96875 C 1866.300781 768.96875 1866.839844 768.96875 1867.378906 768.96875 C 1872.601562 768.988281 1876.839844 773.238281 1876.839844 778.460938 L 1876.839844 891.5 "/>
<path fill-rule="evenodd" fill="rgb(19.993591%, 19.993591%, 19.993591%)" fill-opacity="1" d="M 715.214844 615.039062 C 848.152344 618.351562 985.902344 652 1102.898438 716.039062 C 1143 737.988281 1184.199219 765.429688 1216.761719 797.738281 C 1237.140625 817.960938 1262.679688 848.808594 1262.679688 879.140625 L 1262.679688 1778.847656 L 1226.191406 1813.625 L 1213.851562 1779.519531 C 1207.019531 1760.648438 1184.449219 1738.402344 1169.699219 1725.484375 C 1139.238281 1698.8125 1103.101562 1676.179688 1067.25 1657.5625 C 964.6875 1604.304688 846.546875 1575.078125 731.355469 1569.851562 C 717.699219 1569.234375 703.703125 1568.558594 694.429688 1556.777344 C 687.453125 1547.914062 687.644531 1538.910156 687.410156 1528.449219 L 687.402344 1527.996094 C 687 1402.039062 686.644531 1276.070312 686.515625 1150.109375 C 686.398438 1033.558594 686.351562 916.96875 687.128906 800.421875 C 687.390625 761.601562 687.675781 722.738281 688.53125 683.941406 C 688.78125 672.671875 689.046875 661.359375 689.628906 650.101562 C 690.160156 639.761719 690.210938 628.949219 698.640625 621.238281 L 705.679688 614.800781 L 715.214844 615.039062 "/>
<path fill-rule="evenodd" fill="rgb(100%, 100%, 100%)" fill-opacity="1" d="M 714.625 638.699219 C 708.398438 644.398438 710.195312 1252.03125 711.078125 1527.921875 C 711.4375 1543.878906 710.089844 1545.1875 732.429688 1546.203125 C 1008.851562 1558.742188 1210.070312 1699.515625 1236.109375 1771.460938 L 1239 1768.703125 L 1239 879.140625 C 1239 812.53125 1020.53125 646.339844 714.625 638.699219 "/>
<path fill-rule="evenodd" fill="rgb(19.993591%, 19.993591%, 19.993591%)" fill-opacity="1" d="M 1786.460938 615.039062 C 1653.519531 618.351562 1515.769531 652 1398.78125 716.039062 C 1358.679688 737.988281 1317.480469 765.429688 1284.921875 797.738281 C 1264.539062 817.960938 1239 848.808594 1239 879.140625 L 1239 1778.847656 L 1275.488281 1813.625 L 1287.828125 1779.519531 C 1294.660156 1760.648438 1317.230469 1738.402344 1331.980469 1725.484375 C 1362.441406 1698.8125 1398.578125 1676.179688 1434.429688 1657.5625 C 1536.988281 1604.304688 1655.128906 1575.078125 1770.320312 1569.851562 C 1783.980469 1569.234375 1797.96875 1568.558594 1807.25 1556.777344 C 1814.230469 1547.914062 1814.03125 1538.910156 1814.269531 1528.449219 L 1814.269531 1527.996094 C 1814.679688 1402.039062 1815.03125 1276.070312 1815.160156 1150.109375 C 1815.28125 1033.558594 1815.328125 916.96875 1814.550781 800.421875 C 1814.289062 761.601562 1814 722.738281 1813.148438 683.941406 C 1812.898438 672.671875 1812.628906 661.359375 1812.050781 650.101562 C 1811.519531 639.761719 1811.46875 628.949219 1803.039062 621.238281 L 1796 614.800781 L 1786.460938 615.039062 "/>
<path fill-rule="evenodd" fill="rgb(100%, 100%, 100%)" fill-opacity="1" d="M 1787.050781 638.699219 C 1793.28125 644.398438 1791.480469 1252.03125 1790.601562 1527.921875 C 1790.238281 1543.878906 1791.589844 1545.1875 1769.25 1546.203125 C 1492.828125 1558.742188 1291.609375 1699.515625 1265.570312 1771.460938 L 1262.679688 1768.703125 L 1262.679688 879.140625 C 1262.679688 812.53125 1481.148438 646.339844 1787.050781 638.699219 "/>
</svg>
